<?xml version="1.0" encoding="UTF-8"?>
<svg id="Layer_2" data-name="Layer 2" xmlns="http://www.w3.org/2000/svg" viewBox="0 0 51.39 35.2">
  <defs>
    <style>
      .cls-1 {
        fill: #1e1e1e;
        fill-rule: evenodd;
      }
    </style>
  </defs>
  <g id="Layer_1-2" data-name="Layer 1">
    <path class="cls-1" d="M26.48,5.98v28.23c4.4-3.49,10.13-5.4,16.36-5.4,1.49,0,2.82,.08,4.23,.33V.25c-1.33-.25-2.66-.25-4.23-.25-6.39,.08-12.37,2.24-16.36,5.98h0Zm16.36,24.57c-5.65,0-10.88,1.66-14.94,4.65h23.5V7.14h-2.66V30.22c0,.25-.08,.5-.33,.66-.17,.17-.42,.25-.66,.17-1.58-.33-3.15-.5-4.9-.5h0Zm-19.51,4.65c-3.9-2.99-9.3-4.65-14.78-4.65-1.74,0-3.32,.17-4.9,.5-.25,.08-.5,0-.66-.17-.17-.17-.33-.42-.33-.66V7.14H0s0,28.06,0,28.06H23.33Zm1.49-1V5.98C20.92,2.24,15.11,.08,8.63,.08,7.06,.08,5.73,.08,4.4,.33V29.22c1.33-.25,2.74-.33,4.23-.33,6.14,0,11.96,1.91,16.19,5.31h0Z"/>
  </g>
</svg>