<?xml version="1.0" encoding="UTF-8"?>
<svg id="Layer_2" data-name="Layer 2" xmlns="http://www.w3.org/2000/svg" viewBox="0 0 37.21 35.6">
  <defs>
    <style>
      .cls-1 {
        fill: #1e1e1e;
      }
    </style>
  </defs>
  <g id="Layer_1-2" data-name="Layer 1">
    <path class="cls-1" d="M7.48,35.6h6.69c.64-.23,.87-.68,.87-1.32-.02-2.65,0-5.3,0-7.95,0-1.18,.75-1.89,1.99-1.9,1.03,0,2.06,0,3.09,0,1.34,0,2.07,.69,2.07,1.97,0,2.63,.01,5.25,0,7.88,0,.64,.22,1.1,.86,1.33h6.69s.06-.05,.09-.05c1.74-.21,3.45-1.75,3.42-4-.05-3.35-.01-6.69-.01-10.04,0-.13,0-.27,0-.39,.07-.02,.09-.04,.12-.04,.18,0,.36,0,.54,0,1.33-.07,2.32-.66,2.95-1.78,.17-.31,.26-.66,.38-1,0-.32,0-.65,0-.97-.22-1.04-.92-1.77-1.68-2.49-4.78-4.55-9.54-9.12-14.31-13.68-1.61-1.54-3.62-1.54-5.22,0C11.06,5.87,6.13,10.59,1.19,15.3c-.13,.12-.26,.25-.37,.38-1.7,1.91-.62,4.87,1.96,5.33,.39,.07,.79,.07,1.2,.1,0,.15,0,.29,0,.43,0,3.45-.01,6.9,0,10.35,0,1.63,1.23,3.1,2.86,3.55,.21,.06,.42,.11,.62,.16Z"/>
  </g>
</svg>