<?xml version="1.0" encoding="UTF-8"?>
<svg style="fill: #1e1e1e" xmlns="http://www.w3.org/2000/svg" viewBox="0 0 162.58 63.91">
  <g>
    <g>
      <path d="M51.8,17.13c-.64-4.06-1.25-8.13-2.18-12.12-.9-3.88-3.64-5.54-7.38-4.85C31.28,2.19,20.33,4.23,9.39,6.32c-4.55,.87-5.95,2.34-6.46,6.88C1.92,22.16,1,31.13,.05,40.1c-.06,.62-.07,1.26-.01,1.87,.25,2.99,1.85,4.77,4.82,5.18,1.59,.22,3.21,.17,4.81,.27,.67,.05,1.33,.18,2.31,.32-1.72,5.4-3.36,10.55-5,15.69,.19,.15,.37,.31,.56,.47,.97-.75,1.97-1.47,2.91-2.26,4.65-3.92,9.3-7.83,13.88-11.83,1.17-1.02,2.35-1.53,3.87-1.33,.8,.1,1.61,.09,2.41,.15,6.24,.42,12.47,.88,18.71,1.23,1.23,.07,2.5-.18,3.71-.48,1.83-.45,2.88-1.78,3-3.66,.05-.79-.08-1.6-.2-2.4-1.33-8.73-2.64-17.47-4.02-26.2Zm-20.51,15.86h-5.16v-7.92c0-.79-.22-1.4-.66-1.84-.44-.44-1.04-.66-1.79-.66s-1.35,.22-1.79,.66c-.44,.44-.66,1.05-.66,1.84v7.92h-5.16v-7.92c0-.79-.21-1.4-.64-1.84-.43-.44-1.02-.66-1.78-.66s-1.37,.22-1.81,.66c-.44,.44-.66,1.05-.66,1.84v7.92H6.04v-14.76h5.16v1.95c.46-.63,1.05-1.13,1.77-1.51,.73-.37,1.57-.56,2.52-.56,1.08,0,2.06,.23,2.91,.71,.85,.48,1.52,1.14,2.02,2,.52-.8,1.22-1.46,2.08-1.96,.86-.5,1.81-.75,2.84-.75,1.86,0,3.32,.56,4.39,1.68,1.06,1.12,1.59,2.66,1.59,4.61v8.6Zm9.34,7.02h-5.6l3.53-7.65-6.05-14.13h5.74l3.11,8.37,3-8.37h5.65l-9.37,21.79Z"/>
      <path d="M64.04,22.65c.91,0,1.53,.48,1.84,1.45h5.47c-.37-1.84-1.19-3.28-2.47-4.3-1.28-1.03-2.86-1.54-4.74-1.54-1.46,0-2.75,.31-3.88,.92s-2.01,1.49-2.64,2.63c-.63,1.14-.95,2.47-.95,4s.32,2.89,.95,4.03c.63,1.14,1.51,2.02,2.64,2.63s2.42,.92,3.88,.92c1.88,0,3.46-.52,4.74-1.55,1.28-1.03,2.1-2.46,2.47-4.29h-5.47c-.3,.96-.91,1.45-1.84,1.45-.65,0-1.16-.27-1.54-.82-.38-.54-.57-1.33-.57-2.37s.19-1.82,.57-2.35c.38-.53,.89-.8,1.54-.8Z"/>
      <path d="M78.64,21.04v-2.6h-5.16v14.76h5.16v-6.45c0-1.09,.27-1.85,.82-2.29,.54-.44,1.38-.66,2.5-.66h1.45v-5.5c-.95,0-1.83,.25-2.66,.74-.83,.49-1.53,1.16-2.11,2Z"/>
      <path d="M87.85,11.75c-.91,0-1.65,.25-2.2,.76-.55,.51-.83,1.15-.83,1.92s.28,1.38,.83,1.88c.55,.5,1.28,.75,2.2,.75s1.62-.25,2.17-.75c.55-.5,.83-1.13,.83-1.88s-.28-1.41-.83-1.92c-.55-.51-1.28-.76-2.17-.76Z"/>
      <rect x="85.25" y="18.44" width="5.16" height="14.76"/>
      <path d="M99.63,28.54c-.18-.18-.28-.46-.28-.87v-4.95h2.68v-4.29h-2.68v-3.58h-5.18v3.58h-1.82v4.29h1.82v4.87c0,3.74,1.89,5.6,5.66,5.6h2.24v-4.39h-1.5c-.44,0-.75-.09-.93-.26Z"/>
      <path d="M107.03,11.75c-.91,0-1.64,.25-2.2,.76-.55,.51-.83,1.15-.83,1.92s.28,1.38,.83,1.88c.55,.5,1.28,.75,2.2,.75s1.62-.25,2.17-.75c.55-.5,.83-1.13,.83-1.88s-.28-1.41-.83-1.92c-.55-.51-1.28-.76-2.17-.76Z"/>
      <rect x="104.43" y="18.44" width="5.16" height="14.76"/>
      <path d="M122.32,19.94c-.95-1.09-2.28-1.63-4-1.63-1.19,0-2.29,.32-3.3,.97-1.01,.65-1.82,1.55-2.42,2.7-.61,1.15-.91,2.45-.91,3.91s.3,2.75,.89,3.89c.6,1.14,1.4,2.03,2.41,2.66,1.01,.63,2.11,.95,3.3,.95,1.6,0,2.94-.64,4.03-1.92v8.79h5.16V18.44h-5.16v1.5Zm-.83,8.16c-.55,.53-1.17,.79-1.86,.79s-1.32-.25-1.87-.75c-.54-.5-.82-1.25-.82-2.25s.28-1.77,.83-2.3c.55-.53,1.17-.8,1.86-.8s1.3,.26,1.86,.78c.55,.52,.83,1.27,.83,2.25s-.28,1.76-.83,2.29Z"/>
      <path d="M140.34,26.36c0,.84-.22,1.5-.66,1.99-.44,.48-1.03,.72-1.79,.72s-1.33-.24-1.78-.72c-.45-.48-.67-1.14-.67-1.99v-7.92h-5.13v8.58c0,1.95,.49,3.49,1.49,4.62,.99,1.13,2.35,1.7,4.07,1.7,1,0,1.89-.21,2.66-.62,.77-.41,1.38-.95,1.82-1.62v2.1h5.18v-14.76h-5.18v7.92Z"/>
      <path d="M162.58,25.65c0-1.51-.32-2.82-.95-3.93-.63-1.11-1.51-1.97-2.63-2.57-1.12-.6-2.41-.89-3.87-.89s-2.78,.31-3.91,.92c-1.13,.61-2.01,1.49-2.64,2.62-.63,1.13-.95,2.47-.95,4.01s.32,2.89,.96,4.03c.64,1.14,1.53,2.02,2.66,2.63,1.13,.61,2.42,.92,3.88,.92,1.21,0,2.32-.23,3.32-.68,1-.46,1.83-1.08,2.49-1.88,.66-.8,1.1-1.71,1.33-2.72h-5.5c-.37,.77-.98,1.16-1.84,1.16-.61,0-1.12-.2-1.51-.59-.39-.39-.62-1-.67-1.8h9.76c.05-.4,.08-.81,.08-1.21Zm-9.81-1.29c.12-.67,.39-1.17,.79-1.51,.4-.34,.92-.51,1.55-.51s1.16,.18,1.58,.54c.42,.36,.63,.86,.63,1.49h-4.55Z"/>
    </g>
  </g>
</svg>