<?xml version="1.0" encoding="UTF-8"?>
<svg id="Layer_2" data-name="Layer 2" xmlns="http://www.w3.org/2000/svg" viewBox="0 0 42.37 27.95">
  <defs>
    <style>
      .cls-1 {
        fill: #1e1e1e;
      }
    </style>
  </defs>
  <g id="Layer_1-2" data-name="Layer 1">
    <g>
      <path class="cls-1" d="M42.37,4.62V23.33c0,.83-.2,1.6-.54,2.27l-14.86-12.09L41.45,1.73c.58,.79,.92,1.8,.92,2.89Z"/>
      <path class="cls-1" d="M40.35,27.27c-.64,.43-1.39,.67-2.19,.67H4.21c-.8,0-1.55-.25-2.19-.67l15.15-12.33,1.7,1.38c.65,.53,1.48,.79,2.31,.79s1.67-.26,2.31-.79l1.7-1.38,15.15,12.33Z"/>
      <path class="cls-1" d="M15.41,13.51L.54,25.6c-.35-.67-.54-1.45-.54-2.27V4.62C0,3.53,.35,2.52,.92,1.73L15.41,13.51Z"/>
      <path class="cls-1" d="M39.67,.3l-14.47,11.77-1.77,1.44-1.18,.96c-.56,.45-1.57,.45-2.13,0l-1.18-.96-1.77-1.44L2.7,.3c.47-.2,.97-.3,1.5-.3H38.17c.53,0,1.04,.11,1.5,.3Z"/>
    </g>
  </g>
</svg>