<?xml version="1.0" encoding="UTF-8"?>
<svg id="Layer_2" data-name="Layer 2" xmlns="http://www.w3.org/2000/svg" viewBox="0 0 51.05 47.91">
  <defs>
    <style>
      .cls-1 {
        fill-rule: evenodd;
      }

      .cls-1, .cls-2 {
        fill: #1e1e1e;
      }
    </style>
  </defs>
  <g id="Layer_1-2" data-name="Layer 1">
    <g>
      <path class="cls-1" d="M49.54,21.27c-.96-.56-2.07-.56-3.03,0l-5.02,2.9v19.59l5.02,2.9c.96,.56,2.07,.56,3.03,0,.96-.56,1.52-1.51,1.52-2.63V23.9c0-1.11-.55-2.07-1.52-2.63Z"/>
      <path class="cls-2" d="M5.09,20.01h29.11c2.81,0,5.09,2.28,5.09,5.09v17.71c0,2.81-2.28,5.09-5.09,5.09H5.09c-2.81,0-5.09-2.28-5.09-5.09V25.11c0-2.81,2.28-5.09,5.09-5.09Z"/>
      <path class="cls-1" d="M9.52,18.8c4.09,0,7.4-3.31,7.4-7.4s-3.31-7.4-7.4-7.4S2.12,7.32,2.12,11.4s3.31,7.4,7.4,7.4Zm0-10.19c1.54,0,2.79,1.25,2.79,2.79s-1.25,2.79-2.79,2.79-2.79-1.25-2.79-2.79,1.25-2.79,2.79-2.79Z"/>
      <path class="cls-1" d="M27.78,18.8c5.19,0,9.4-4.21,9.4-9.4S32.97,0,27.78,0s-9.4,4.21-9.4,9.4,4.21,9.4,9.4,9.4Zm0-12.19c1.54,0,2.79,1.25,2.79,2.79s-1.25,2.79-2.79,2.79-2.79-1.25-2.79-2.79,1.25-2.79,2.79-2.79Z"/>
    </g>
  </g>
</svg>