<?xml version="1.0" encoding="UTF-8"?>
<svg id="Layer_2" data-name="Layer 2" xmlns="http://www.w3.org/2000/svg" viewBox="0 0 37.39 39.49">
  <defs>
    <style>
      .cls-1 {
        fill: #1e1e1e;
      }
    </style>
  </defs>
  <g id="Layer_1-2" data-name="Layer 1">
    <path class="cls-1" d="M37.39,28.53c0,1.69-.89,3.21-2.33,4.31-1.39,1.06-3.3,1.71-5.4,1.71s-4.01-.65-5.4-1.71c-1.44-1.09-2.33-2.61-2.33-4.31s.89-3.21,2.33-4.31c1.39-1.06,3.3-1.71,5.4-1.71,.96,0,1.87,.14,2.72,.38V5.78L15.6,10.21v22.44c0,.21-.05,.41-.14,.59,0,.08,0,.16,0,.24,0,1.69-.89,3.21-2.33,4.31-1.39,1.06-3.3,1.71-5.4,1.71s-4.01-.65-5.4-1.71c-1.44-1.09-2.33-2.61-2.33-4.31s.89-3.21,2.33-4.31c1.39-1.06,3.3-1.71,5.4-1.71,1.08,0,2.11,.17,3.04,.48V7.77c0-.98,.67-1.84,1.63-2.07L35.73,.04c.65-.17,1.33,.22,1.5,.87,.03,.13,.04,.24,.04,.37l.12,27.25Z"/>
  </g>
</svg>