<?xml version="1.0" encoding="UTF-8"?>
<svg id="Layer_2" data-name="Layer 2" xmlns="http://www.w3.org/2000/svg" viewBox="0 0 27.7 35.94">
  <defs>
    <style>
      .cls-1 {
        fill: #1e1e1e;
      }
    </style>
  </defs>
  <g id="Layer_1-2" data-name="Layer 1">
    <path class="cls-1" d="M27.7,28.4c0,.34-.14,.64-.36,.86-.22,.22-.52,.35-.85,.35H1.21c-.33,0-.63-.13-.85-.35-.22-.22-.36-.52-.36-.86,0-1.74,1.06-3.24,2.58-3.87,.22-.09,.36-.32,.36-.56V15.19c0-5.15,3.57-9.47,8.37-10.61v-1.92C11.31,1.33,12.27,.14,13.59,.01c1.52-.15,2.8,1.04,2.8,2.53v2.04c4.8,1.14,8.37,5.46,8.37,10.61v8.77c0,.24,.13,.47,.36,.56,1.52,.63,2.58,2.13,2.58,3.87Zm-9.64,3.37h0s-8.42,0-8.42,0h0c0,2.31,1.87,4.17,4.17,4.17h.08c2.31,0,4.17-1.87,4.17-4.17Z"/>
  </g>
</svg>