<?xml version="1.0" encoding="UTF-8"?>
<svg id="Layer_2" data-name="Layer 2" xmlns="http://www.w3.org/2000/svg" viewBox="0 0 49.1 45.82">
  <defs>
    <style>
      .cls-1 {
        fill: #1e1e1e;
      }
    </style>
  </defs>
  <g id="Layer_1-2" data-name="Layer 1">
    <path class="cls-1" d="M44,10.74H25.39L34.16,1.23c.24-.34,.17-.81-.14-1.06-.29-.24-.75-.22-1.03,.05-3.23,3.51-6.46,7.02-9.7,10.53h-.16L13.13,.21c-.29-.17-.65-.15-.91,.05-.29,.22-.4,.63-.24,.98,3.01,3.17,6.02,6.34,9.03,9.5H5.1c-2.82,0-5.1,2.21-5.1,4.94v25.2c0,2.73,2.28,4.94,5.1,4.94H44c2.82,0,5.1-2.21,5.1-4.94V15.68c0-2.73-2.28-4.94-5.1-4.94Zm-8.37,23.98c0,2.76-2.23,4.99-4.99,4.99H11.39c-2.76,0-4.99-2.23-4.99-4.99v-12.7c0-2.76,2.23-4.99,4.99-4.99H30.65c2.76,0,4.99,2.23,4.99,4.99v12.7Zm8.09,5.86c-1.71,0-3.1-1.34-3.1-2.99s1.39-3,3.1-3,3.1,1.34,3.1,3-1.39,2.99-3.1,2.99Zm0-8.12c-1.71,0-3.1-1.34-3.1-3s1.39-2.99,3.1-2.99,3.1,1.34,3.1,2.99-1.39,3-3.1,3Zm0-8.89c-1.71,0-3.1-1.34-3.1-3s1.39-2.99,3.1-2.99,3.1,1.34,3.1,2.99-1.39,3-3.1,3Z"/>
  </g>
</svg>